# xmcd
#
# Track frame offsets:
#	150
#	18954
#	40406
#	66466
#	88212
#	106323
#	137879
#	156443
#	174901
#
# Disc length: 2545 seconds
#
# Revision: 1
# Processed by: cddbd v1.5.2PL0 Copyright (c) Steve Scherf et al.
# Submitted via: audiograbber 1.83.01
#
DISCID=7a09ef09
DTITLE=ROBERTO CARLOS - CORAZON
DYEAR=1900
DGENRE=
TTITLE0=CORAZON
TTITLE1=YO Y ELLA
TTITLE2=ALELUYA
TTITLE3=LUNA NUEVA
TTITLE4=CARTAS DE AMOR
TTITLE5=CAMIONERO
TTITLE6=YO TE AMO
TTITLE7=SABORES
TTITLE8=LAS MISMAS COSAS
EXTD=
EXTT0=
EXTT1=
EXTT2=
EXTT3=
EXTT4=
EXTT5=
EXTT6=
EXTT7=
EXTT8=
PLAYORDER=
